<svg width="48" height="48" viewBox="0 0 48 48" fill="none" xmlns="http://www.w3.org/2000/svg">
<rect width="48" height="48" rx="24" fill="#59CBE8"/>
<path fill-rule="evenodd" clip-rule="evenodd" d="M26.6667 28.9759V29.3359H21.3333V28.9625C21.3333 26.8567 20.5869 26.0748 19.3531 24.7825L19.3493 24.7785L19.1613 24.5812C17.9813 23.3519 17.3333 21.7252 17.3333 20.0025C17.3333 17.9812 18.2307 16.0919 19.7947 14.8199C21.3587 13.5479 23.416 13.0625 25.4373 13.4825C28.004 14.0119 30.0573 16.1132 30.544 18.7105C30.9213 20.7545 30.3733 22.8172 29.044 24.3652C28.8913 24.5407 28.7445 24.7029 28.6053 24.8568L28.6052 24.8569L28.464 25.0132L28.4637 25.0135C27.4199 26.1573 26.6667 26.9827 26.6667 28.9759ZM20 30.6692H28V28.9759C28 27.5001 28.4839 26.9693 29.4476 25.9123L29.448 25.9119L29.4989 25.856L29.499 25.8558C29.6723 25.6654 29.8566 25.4629 30.052 25.2372C31.6493 23.3799 32.3067 20.9119 31.856 18.4665C31.268 15.3425 28.7987 12.8145 25.708 12.1759C23.2947 11.6732 20.8293 12.2599 18.9533 13.7852C17.0773 15.3119 16 17.5785 16 20.0025C16 22.0705 16.7813 24.0252 18.196 25.5025L18.3853 25.6985L18.3875 25.7008C19.5605 26.9298 20 27.3902 20 28.9625V30.6692ZM18.6667 20.0025H20C20 17.7972 21.7947 16.0025 24 16.0025V14.6692C21.0587 14.6692 18.6667 17.0612 18.6667 20.0025ZM28 33.3359V32.0025H20V33.3359H28ZM28 34.6692V36.0025H20V34.6692H28Z" fill="#2C2A29"/>
</svg>